<?xml version="1.0" encoding="utf-8"?>
<!-- Generator: Adobe Illustrator 27.5.0, SVG Export Plug-In . SVG Version: 6.00 Build 0)  -->
<svg version="1.1" xmlns="http://www.w3.org/2000/svg" xmlns:xlink="http://www.w3.org/1999/xlink" x="0px" y="0px"
	 viewBox="0 0 500 500" style="enable-background:new 0 0 500 500;" xml:space="preserve">
<g id="BACKGROUND">
	<rect style="fill:#D3EFED;" width="500" height="500"/>
</g>
<g id="OBJECTS">
	<g>
		<g>
			<g>
				<path style="fill:#9DCEC9;" d="M189.658,126.828c0,0,13.378-21.46,22.265-34.171s49.415-10.064,52.263-8.535
					c2.848,1.53-17.1,5.988-22.581,21.126c-5.482,15.139-10.034,55.922-35.427,44.738
					C180.786,138.803,182.321,138.425,189.658,126.828z"/>
				<path style="fill:#9DCEC9;" d="M272.374,89.23c0,0-22.786,8.451-23.355,19.57c-0.569,11.119,16.708,17.25,22.427,27.158
					l-6.299,3.497c-1.994,1.107-1.807,4.412,0.299,5.178c7.757,2.821,20.77,6.082,35.488,6.11c0,0,7.288-16.345,10.246-28.193
					c0.537-2.149-1.259-4.091-3.128-3.4l-9.548,3.534C298.503,122.685,289.518,102.036,272.374,89.23z"/>
			</g>
			<g>
				<path style="fill:#9DCEC9;" d="M396.47,289.499c0,0,13.34,21.483,20.817,35.072c7.477,13.589-12.806,48.777-15.436,50.656
					c-2.63,1.879,2.184-17.986-8.975-29.592c-11.159-11.607-45.733-33.711-24.481-51.548
					C389.647,276.248,389.309,277.792,396.47,289.499z"/>
				<path style="fill:#9DCEC9;" d="M393.651,380.315c0,0,2.487-24.176-7.236-29.599c-9.723-5.423-22.857,7.367-34.273,8.118
					l-0.354-7.196c-0.112-2.278-3.16-3.57-4.777-2.02c-5.958,5.712-14.634,15.945-21.161,29.136c0,0,11.442,13.76,20.764,21.649
					c1.691,1.431,4.227,0.678,4.432-1.304l1.048-10.128C352.094,388.973,374.587,390.036,393.651,380.315z"/>
			</g>
			<g>
				<path style="fill:#9DCEC9;" d="M158.005,399.971c0,0-24.838-4.752-39.897-8.465c-15.059-3.713-27.186-42.475-26.785-45.682
					c0.401-3.207,11.744,13.796,27.841,13.458c16.097-0.339,55.783-10.78,54.495,16.937
					C172.371,403.935,171.466,402.64,158.005,399.971z"/>
				<path style="fill:#9DCEC9;" d="M93.139,336.347c0,0,16.091,18.214,26.668,14.74c10.578-3.474,10.075-21.799,17.259-30.702
					l5.531,4.617c1.751,1.462,4.767,0.097,4.723-2.144c-0.162-8.252-1.806-21.567-7.081-35.307c0,0-17.872-0.912-29.991,0.595
					c-2.198,0.273-3.364,2.648-2.045,4.142l6.736,7.635C114.939,299.923,98.912,315.741,93.139,336.347z"/>
			</g>
		</g>
		<g>
			<path style="fill:#EF8E92;" d="M184.029,55.303l8.154,25.127c1.074,3.308,4.66,5.084,7.935,3.914
				c9.523-3.4,29.181-9.419,49.001-9.419c19.7,0,37.242,4.722,45.684,7.431c3.046,0.977,6.324-0.544,7.563-3.493l9.923-23.625
				c1.306-3.11-0.114-6.697-3.206-8.045c-15.456-6.739-62.162-22.518-121.432,0.447C184.605,48.821,183.02,52.195,184.029,55.303z"
				/>
			<path style="fill:#FFB22E;" d="M451.179,380.093l-20.607-16.529c-2.713-2.176-6.685-1.692-8.781,1.083
				c-6.095,8.069-19.224,23.889-35.792,34.767c-16.468,10.812-33.724,16.493-42.267,18.862c-3.083,0.855-4.988,3.926-4.405,7.071
				l4.672,25.195c0.615,3.316,3.771,5.535,7.095,4.965c16.619-2.85,64.322-15.293,101.263-67.02
				C454.256,385.828,453.728,382.137,451.179,380.093z"/>
			<path style="fill:#73A065;" d="M49.2,380.093l20.607-16.529c2.713-2.176,6.685-1.692,8.781,1.083
				c6.095,8.069,19.224,23.889,35.792,34.767c16.468,10.812,33.724,16.493,42.267,18.862c3.083,0.855,4.988,3.926,4.405,7.071
				l-4.672,25.195c-0.615,3.316-3.771,5.535-7.095,4.965c-16.619-2.85-64.322-15.293-101.263-67.02
				C46.124,385.828,46.651,382.137,49.2,380.093z"/>
		</g>
		<g>
			<path id="SVGID_x5F_1_x5F_" style="fill:none;" d="M54.222,371.767c0,0,25.609,67.893,106.935,74.264"/>
			<text>			<textPath  xlink:href="#SVGID_x5F_1_x5F_" startOffset="15.869%">
<tspan  style="fill:#FFFFFF; font-family:'SecularOne-Regular'; font-size:25px; letter-spacing:30;">recycle</tspan>			</textPath>
</text>
			<path id="SVGID_x5F_00000053543932378436543170000004754401952681901247_x5F_" style="fill:none;" d="M334.964,437.311
				c0,0,75.997,11.72,111.098-67.878"/>
			<text>			<textPath  xlink:href="#SVGID_x5F_00000053543932378436543170000004754401952681901247_x5F_" startOffset="15.869%">
<tspan  style="fill:#FFFFFF; font-family:'SecularOne-Regular'; font-size:27px; letter-spacing:80;">use</tspan>			</textPath>
</text>
			<g>
				<path id="SVGID_x5F_00000036215798586294620530000002038803213166484392_x5F_" style="fill:none;" d="M182.252,79.158
					c0,0,67.394-29.65,135.497,0"/>
				<text>				<textPath  xlink:href="#SVGID_x5F_00000036215798586294620530000002038803213166484392_x5F_" startOffset="1.758%">
<tspan  style="fill:#FFFFFF; font-family:'SecularOne-Regular'; font-size:33.1914px; letter-spacing:80;">make</tspan>				</textPath>
</text>
			</g>
		</g>
		<g>
			<g>
				<g>
					<path style="fill:#FFFFFF;" d="M329.531,187.38c-6.626,0-14.056-0.632-21.44-2.53c-1.487-0.382-2.754-1.356-3.505-2.694
						c-0.751-1.339-0.923-2.927-0.475-4.396l14.493-47.495c0.51-1.672,1.768-3.011,3.404-3.625
						c1.273-0.477,12.715-4.531,22.255,0.235c1.548,0.773,2.654,2.216,2.999,3.911l9.66,47.495c0.601,2.955-1.236,5.859-4.164,6.582
						C352.145,185.015,342.345,187.38,329.531,187.38z M316.668,175.152c11.141,1.792,21.92,0.74,28.093-0.214l-7.891-38.799
						c-2.849-0.597-6.082-0.198-8.393,0.318L316.668,175.152z"/>
					<path style="fill:#FFFFFF;" d="M370.753,184.255c-4.256,0-9.031-0.48-13.78-1.922c-2.885-0.876-4.566-3.87-3.813-6.789
						l8.801-34.075c0.43-1.664,1.596-3.04,3.168-3.736c0.901-0.399,9.002-3.787,15.926,0.298c1.423,0.839,2.405,2.262,2.685,3.89
						l5.867,34.075c0.486,2.818-1.223,5.553-3.968,6.354C385.245,182.465,378.968,184.255,370.753,184.255z M365.518,172.683
						c4.566,0.588,8.919,0.275,12.072-0.171l-4.343-25.225c-0.4,0.006-0.805,0.045-1.196,0.103L365.518,172.683z"/>
					<path style="fill:#FFFFFF;" d="M396.208,184.255c-4.256,0-9.031-0.48-13.78-1.922c-2.885-0.876-4.567-3.87-3.812-6.789
						l8.801-34.075c0.43-1.664,1.596-3.04,3.167-3.736c0.901-0.399,9.002-3.787,15.926,0.298c1.423,0.839,2.405,2.262,2.685,3.89
						l5.867,34.075c0.486,2.818-1.223,5.553-3.968,6.354C410.701,182.465,404.424,184.255,396.208,184.255z M390.973,172.683
						c4.57,0.588,8.919,0.275,12.073-0.171l-4.343-25.225c-0.4,0.006-0.805,0.045-1.196,0.103L390.973,172.683z"/>
					<path style="fill:#FFFFFF;" d="M361.166,263.747c-17.31,0-37.179-1.642-57.883-6.566c-2.46-0.585-4.227-2.739-4.32-5.266
						l-2.845-77.586c-0.068-1.835,0.766-3.588,2.231-4.695l27.548-20.802c1.704-1.286,3.987-1.497,5.897-0.546
						c1.91,0.951,3.117,2.901,3.117,5.035v10.6l22.722-15.268c1.724-1.159,3.947-1.274,5.782-0.296
						c1.834,0.977,2.98,2.886,2.98,4.964v10.441l23.36-15.16c1.73-1.122,3.935-1.209,5.747-0.224c1.812,0.984,2.94,2.881,2.94,4.943
						v9.854l19.732-14.398c1.732-1.263,4.033-1.434,5.932-0.435c1.898,0.998,3.065,2.989,3.006,5.133l-2.694,98.387
						c-0.068,2.493-1.769,4.643-4.179,5.283C418.75,257.542,394.8,263.747,361.166,263.747z M310.047,247.182
						c47.28,10.246,90.171,2.814,103.246,0.026l2.262-82.592l-19.421,14.171c-1.709,1.247-3.975,1.43-5.864,0.471
						c-1.887-0.96-3.076-2.898-3.076-5.015v-10.565l-23.36,15.16c-1.728,1.123-3.933,1.21-5.747,0.224
						c-1.812-0.984-2.94-2.881-2.94-4.943v-10.241l-22.722,15.268c-1.725,1.159-3.949,1.273-5.782,0.296
						c-1.834-0.977-2.98-2.886-2.98-4.964v-9.861l-16.195,12.229L310.047,247.182z"/>
					<path style="fill:#FFFFFF;" d="M363.132,269.669c-33.666,0-58.495-6.694-60.044-7.121c-2.439-0.673-4.129-2.892-4.129-5.422
						v-5.575c0-1.625,0.703-3.171,1.927-4.239c1.225-1.069,2.851-1.555,4.462-1.334c60.739,8.332,112.012,0.107,112.523,0.023
						c1.626-0.27,3.294,0.194,4.553,1.262c1.259,1.069,1.985,2.637,1.985,4.288v5.575c0,2.55-1.716,4.781-4.18,5.436
						C400.174,267.891,380.477,269.669,363.132,269.669z"/>
				</g>
				<g>
					<path style="fill:#FFFFFF;" d="M295.412,268.729c-4.275,0-10.443-1.457-15.075-6.867c-9.48-11.072-8.393-33.728,3.23-67.337
						v0.001c1.035-2.993,3.74-5.112,6.893-5.398c3.15-0.291,6.195,1.31,7.752,4.068c17.491,30.962,22.643,53.051,15.315,65.65
						c-4.282,7.363-11.745,9.561-15.848,9.735C297.014,268.673,296.249,268.729,295.412,268.729z M291.916,205.151
						c-4.778,15.333-10.754,40.072-3.133,49.275c2.932,3.541,7.018,3.056,7.474,2.99l0.575-0.104l0.32,0.029
						c0.375-0.015,4.481-0.276,6.727-4.287C309.716,242.629,299.379,219.372,291.916,205.151z M294.2,198.201L294.2,198.201
						c-0.001,0.001-0.001,0.002-0.001,0.002C294.2,198.203,294.2,198.202,294.2,198.201z"/>
					<path style="fill:#FFFFFF;" d="M427.326,267.213c-3.254,0-5.756-0.637-6.764-0.941c-2.368-0.53-12.504-3.408-16.692-14.502
						c-6.298-16.682,4.635-42.61,32.496-77.063l0,0c2.181-2.698,5.618-3.827,8.974-2.949c3.354,0.879,5.797,3.55,6.375,6.972
						c7.374,43.693,4.179,71.65-9.493,83.096C437.078,266.132,431.564,267.213,427.326,267.213z M441.534,186.279
						c-29.451,37.655-29.734,54.649-27.14,61.517c2.367,6.268,8.479,7.473,8.541,7.483l0.487,0.083l0.466,0.166
						c0.188,0.06,6.125,1.951,11.24-2.437C440.692,248.315,448.684,233.298,441.534,186.279z"/>
				</g>
				<g>
					<g>
						<path style="fill:#FFFFFF;" d="M405.863,275.489c-7.059,0-11.304-2.153-11.96-2.511c-1.807-0.985-2.932-2.879-2.932-4.938
							v-26.656c0-3.106,2.518-5.625,5.625-5.625h20.105c3.107,0,5.625,2.519,5.625,5.625v26.656c0,2.439-1.572,4.601-3.893,5.352
							C413.606,274.953,409.385,275.489,405.863,275.489z M416.701,268.04h0.011H416.701z M402.221,263.94
							c2.005,0.352,4.994,0.525,8.855-0.234v-16.697h-8.855V263.94z"/>
						<path style="fill:#FFFFFF;" d="M415.916,251.836h-18.536c-4.427,0-8.029-3.601-8.029-8.028v-1.427
							c0-4.427,3.601-8.028,8.029-8.028h18.536c4.427,0,8.029,3.601,8.029,8.028v1.427
							C423.945,248.234,420.344,251.836,415.916,251.836z"/>
					</g>
					<g>
						<path style="fill:#FFFFFF;" d="M383.239,275.489c-7.059,0-11.304-2.153-11.96-2.511c-1.807-0.985-2.932-2.879-2.932-4.938
							v-26.656c0-3.106,2.518-5.625,5.625-5.625h20.105c3.107,0,5.625,2.519,5.625,5.625v26.656c0,2.439-1.572,4.601-3.893,5.352
							C390.982,274.953,386.761,275.489,383.239,275.489z M394.077,268.04h0.011H394.077z M379.597,263.94
							c2.005,0.352,4.993,0.525,8.855-0.234v-16.697h-8.855V263.94z"/>
						<path style="fill:#FFFFFF;" d="M393.293,251.836h-18.536c-4.427,0-8.029-3.601-8.029-8.028v-1.427
							c0-4.427,3.601-8.028,8.029-8.028h18.536c4.427,0,8.029,3.601,8.029,8.028v1.427
							C401.321,248.234,397.72,251.836,393.293,251.836z"/>
					</g>
				</g>
				<g>
					<path style="fill:#73A065;" d="M309.49,179.397l14.493-47.494c0,0,10.145-3.806,17.766,0l9.66,47.494
						C351.409,179.397,330.033,184.675,309.49,179.397z"/>
					<path style="fill:#73A065;" d="M358.606,176.945l8.801-34.075c0,0,6.161-2.731,10.788,0l5.866,34.075
						C384.062,176.945,371.081,180.732,358.606,176.945z"/>
					<path style="fill:#73A065;" d="M384.062,176.945l8.801-34.075c0,0,6.161-2.731,10.788,0l5.866,34.075
						C409.518,176.945,396.537,180.732,384.062,176.945z"/>
					<path style="fill:#A3C98B;" d="M304.584,251.704l-2.845-77.585l27.548-20.802v21.157l31.484-21.157v20.798l32.046-20.798
						v20.921l28.673-20.921l-2.694,98.387C418.796,251.704,364.841,266.033,304.584,251.704z"/>
					<path style="fill:#D3EFED;" d="M348.459,257.725c0,0-9.831-42.078,12.475-42.078c22.307,0,14.769,42.078,14.769,42.078
						S363.238,258.913,348.459,257.725z"/>
					<path style="fill:#73A065;" d="M350.76,255.231c-0.208-0.971-5.105-24.314,2.292-33.457c1.996-2.467,4.699-3.718,8.033-3.718
						c3.349,0,6.119,1.262,8.233,3.75c7.785,9.163,4.208,32.423,4.05,33.39l-1.439,0.034c0.038-0.23,3.557-23.812-3.773-32.438
						c-1.837-2.162-4.15-3.213-7.071-3.213c-2.892,0-5.132,1.031-6.848,3.152c-6.942,8.578-1.967,32.279-1.918,32.51L350.76,255.231
						z"/>
					<path style="fill:#73A065;" d="M314.001,221.826l0.63,11.674c0.084,1.551,1.234,2.835,2.767,3.089l15.526,2.566
						c2.017,0.333,3.852-1.223,3.852-3.267v-14.241c0-1.829-1.483-3.311-3.311-3.311h-16.156
						C315.409,218.336,313.899,219.929,314.001,221.826z"/>
					<g>
						<polygon style="fill:#A3C98B;" points="337.051,230.116 313.996,228.999 313.574,225.927 337.148,227.069 						"/>
						<polygon style="fill:#A3C98B;" points="326.619,217.616 327.211,238.843 324.143,238.178 323.565,217.471 						"/>
					</g>
					<path style="fill:#73A065;" d="M409.229,221.826l-0.63,11.674c-0.084,1.551-1.234,2.835-2.767,3.089l-15.526,2.566
						c-2.017,0.333-3.852-1.223-3.852-3.267v-14.241c0-1.829,1.483-3.311,3.312-3.311h16.156
						C407.821,218.336,409.331,219.929,409.229,221.826z"/>
					<polygon style="fill:#73A065;" points="420.099,204.122 302.839,204.122 302.237,187.953 420.542,187.953 					"/>
					<g>
						<path style="fill:#D3EFED;" d="M323.615,201.107h-8.802c-0.684,0-1.239-0.555-1.239-1.239v-6.709
							c0-0.684,0.555-1.239,1.239-1.239h8.802c0.684,0,1.239,0.555,1.239,1.239v6.709
							C324.854,200.552,324.3,201.107,323.615,201.107z"/>
						<path style="fill:#D3EFED;" d="M340.491,201.107h-8.802c-0.684,0-1.239-0.555-1.239-1.239v-6.709
							c0-0.684,0.555-1.239,1.239-1.239h8.802c0.684,0,1.239,0.555,1.239,1.239v6.709
							C341.73,200.552,341.175,201.107,340.491,201.107z"/>
						<path style="fill:#D3EFED;" d="M357.367,201.107h-8.802c-0.684,0-1.239-0.555-1.239-1.239v-6.709
							c0-0.684,0.555-1.239,1.239-1.239h8.802c0.684,0,1.239,0.555,1.239,1.239v6.709
							C358.606,200.552,358.051,201.107,357.367,201.107z"/>
						<path style="fill:#D3EFED;" d="M374.243,201.107h-8.802c-0.684,0-1.239-0.555-1.239-1.239v-6.709
							c0-0.684,0.555-1.239,1.239-1.239h8.802c0.684,0,1.239,0.555,1.239,1.239v6.709
							C375.482,200.552,374.927,201.107,374.243,201.107z"/>
						<path style="fill:#D3EFED;" d="M391.118,201.107h-8.802c-0.684,0-1.239-0.555-1.239-1.239v-6.709
							c0-0.684,0.555-1.239,1.239-1.239h8.802c0.684,0,1.239,0.555,1.239,1.239v6.709
							C392.358,200.552,391.803,201.107,391.118,201.107z"/>
						<path style="fill:#D3EFED;" d="M407.994,201.107h-8.802c-0.684,0-1.239-0.555-1.239-1.239v-6.709
							c0-0.684,0.555-1.239,1.239-1.239h8.802c0.684,0,1.239,0.555,1.239,1.239v6.709
							C409.233,200.552,408.679,201.107,407.994,201.107z"/>
					</g>
					<g>
						<polygon style="fill:#A3C98B;" points="386.262,230.116 409.317,228.999 409.74,225.927 386.165,227.069 						"/>
						<polygon style="fill:#A3C98B;" points="396.695,217.616 396.102,238.843 399.17,238.178 399.748,217.471 						"/>
					</g>
					<path style="fill:#73A065;" d="M357.54,239.2c0,1.066-0.864,1.93-1.93,1.93c-1.066,0-1.93-0.864-1.93-1.93
						c0-1.066,0.864-1.93,1.93-1.93C356.675,237.27,357.54,238.134,357.54,239.2z"/>
					<path style="fill:#73A065;" d="M304.584,251.545v5.575c0,0,56.016,15.46,114.201,0v-5.575
						C418.785,251.545,366.867,260.089,304.584,251.545z"/>
					<path style="fill:#D3EFED;" d="M319.214,147.536c0,0,15.951-4.396,25.876,0.795l-1.986-9.764c0,0-6.889-3.689-21.154,0
						L319.214,147.536z"/>
					<path style="fill:#D3EFED;" d="M364.567,153.866c0,0,9.131-2.906,15.604,0.48l-1.097-6.367c0,0-3.683-2.406-12.987,0
						L364.567,153.866z"/>
					<path style="fill:#D3EFED;" d="M390.117,153.866c0,0,9.131-2.906,15.604,0.48l-1.097-6.367c0,0-3.683-2.406-12.987,0
						L390.117,153.866z"/>
				</g>
				<g>
					<path style="fill:#4A827B;" d="M288.884,196.228c0.688-1.989,3.396-2.235,4.431-0.403c37.794,66.905,3.855,67.006,3.855,67.006
						S263.768,268.849,288.884,196.228z"/>
					<path style="fill:#9DCEC9;" d="M295.451,259.598c-0.799-3.832-1.298-7.688-1.709-11.553c-0.411-3.864-0.653-7.742-0.91-11.618
						c-0.232-3.878-0.421-7.76-0.552-11.645c-0.111-3.886-0.164-7.776-0.105-11.669c0.004-0.258,0.216-0.464,0.474-0.46
						c0.236,0.004,0.429,0.183,0.457,0.411c0.471,3.86,0.88,7.721,1.263,11.584c0.372,3.863,0.711,7.728,1.034,11.595
						c0.3,3.868,0.636,7.733,0.824,11.61c0.189,3.877,0.306,7.76,0.152,11.667c-0.01,0.259-0.228,0.461-0.487,0.452
						C295.674,259.963,295.495,259.804,295.451,259.598z"/>
					<path style="fill:#9DCEC9;" d="M286.402,228.627l7.709,2.567c0.695,0.231,1.071,0.983,0.84,1.678
						c-0.232,0.695-0.983,1.071-1.678,0.84c-0.088-0.029-0.177-0.071-0.254-0.115l-7.003-4.12c-0.223-0.131-0.298-0.419-0.166-0.642
						C285.964,228.64,286.197,228.559,286.402,228.627z"/>
					<path style="fill:#9DCEC9;" d="M304.833,238.223l-8.32,10.245c-0.46,0.567-1.293,0.653-1.86,0.193
						c-0.567-0.46-0.653-1.293-0.193-1.86c0.035-0.043,0.077-0.088,0.116-0.125l9.572-9.086c0.187-0.178,0.483-0.17,0.66,0.017
						C304.973,237.779,304.979,238.044,304.833,238.223z"/>
				</g>
				<g>
					<path style="fill:#4A827B;" d="M440.738,178.109c1.67-2.065,4.988-1.195,5.43,1.424c16.133,95.601-24.179,81.157-24.179,81.157
						S379.775,253.497,440.738,178.109z"/>
					<path style="fill:#9DCEC9;" d="M421.338,256.116c0.696-4.889,1.759-9.679,2.929-14.44c1.171-4.761,2.548-9.466,3.906-14.176
						c1.389-4.701,2.831-9.388,4.342-14.053c1.535-4.659,3.142-9.297,4.883-13.891c0.115-0.304,0.456-0.458,0.76-0.342
						c0.279,0.106,0.431,0.401,0.365,0.684c-1.097,4.783-2.269,9.539-3.472,14.286c-1.216,4.743-2.472,9.475-3.748,14.201
						c-1.304,4.718-2.564,9.449-4.005,14.13c-1.439,4.681-2.967,9.339-4.826,13.908c-0.123,0.303-0.468,0.45-0.771,0.327
						C421.445,256.645,421.301,256.379,421.338,256.116z"/>
					<path style="fill:#9DCEC9;" d="M423.891,215.486l8.045,6.354c0.725,0.573,0.849,1.626,0.276,2.351
						c-0.573,0.726-1.625,0.849-2.351,0.276c-0.092-0.072-0.179-0.16-0.251-0.246l-6.541-7.894
						c-0.208-0.251-0.173-0.624,0.078-0.833C423.366,215.313,423.677,215.316,423.891,215.486z"/>
					<path style="fill:#9DCEC9;" d="M441.642,234.781l-14.268,8.585c-0.789,0.475-1.814,0.22-2.289-0.569
						c-0.475-0.789-0.22-1.814,0.569-2.289c0.06-0.036,0.13-0.071,0.192-0.099l15.256-6.673c0.298-0.131,0.646,0.005,0.776,0.304
						C441.998,234.314,441.892,234.63,441.642,234.781z"/>
				</g>
				<g>
					<g>
						<path style="fill:#FFB22E;" d="M416.738,268.155v-26.656h-20.104v26.656C396.634,268.155,404.12,272.238,416.738,268.155z"/>
						<path style="fill:#FFB22E;" d="M416.221,246.326h-19.07c-1.18,0-2.136-0.957-2.136-2.136v-1.961
							c0-1.18,0.957-2.136,2.136-2.136h19.07c1.18,0,2.136,0.956,2.136,2.136v1.961
							C418.357,245.369,417.401,246.326,416.221,246.326z"/>
					</g>
					<g>
						<path style="fill:#4A827B;" d="M394.114,268.155v-26.656H374.01v26.656C374.01,268.155,381.496,272.238,394.114,268.155z"/>
						<path style="fill:#4A827B;" d="M393.597,246.326h-19.07c-1.18,0-2.136-0.957-2.136-2.136v-1.961
							c0-1.18,0.956-2.136,2.136-2.136h19.07c1.18,0,2.136,0.956,2.136,2.136v1.961
							C395.733,245.369,394.777,246.326,393.597,246.326z"/>
					</g>
					<g>
						<path style="fill:#D3EFED;" d="M386.874,249.296c0.439-0.265,0.992,0.051,0.848,0.486c-0.325,0.978-0.843,1.55-0.726,2.786
							c0.206,2.164,2.135,7.692-3.355,8.638C378.387,262.111,377.528,254.934,386.874,249.296z"/>
						<g>
							<path style="fill:#4A827B;" d="M383.17,260.084c-0.127-0.373-0.19-0.751-0.226-1.132c-0.018-0.19-0.023-0.38-0.029-0.571
								c0.002-0.19,0.006-0.38,0.017-0.57c0.016-0.189,0.033-0.379,0.057-0.567c0.027-0.188,0.061-0.375,0.094-0.563
								c0.032-0.187,0.077-0.373,0.119-0.558c0.04-0.186,0.088-0.37,0.142-0.553c0.097-0.368,0.228-0.727,0.356-1.085
								c0.07-0.177,0.147-0.352,0.222-0.526l0.115-0.261c0.043-0.085,0.086-0.17,0.132-0.254l0.269-0.502
								c0.098-0.163,0.204-0.321,0.306-0.481c0.052-0.079,0.101-0.16,0.155-0.237l0.176-0.224c0.116-0.15,0.236-0.296,0.357-0.44
								c0.031-0.036,0.085-0.041,0.121-0.01c0.029,0.025,0.038,0.065,0.024,0.099l-0.002,0.005
								c-0.289,0.688-0.593,1.347-0.811,2.042l-0.09,0.256l-0.077,0.261c-0.051,0.174-0.109,0.344-0.157,0.519
								c-0.09,0.35-0.19,0.696-0.264,1.05c-0.165,0.702-0.278,1.414-0.396,2.128c-0.123,0.714-0.249,1.429-0.438,2.165l-0.001,0.004
								c-0.012,0.047-0.06,0.076-0.108,0.064C383.202,260.134,383.179,260.111,383.17,260.084z"/>
							<path style="fill:#4A827B;" d="M382.055,255.795c0.072,0.21,0.164,0.42,0.265,0.618c0.102,0.199,0.216,0.39,0.341,0.568
								c0.126,0.178,0.267,0.339,0.415,0.483c0.15,0.142,0.314,0.256,0.48,0.347l0,0l-0.491,0.023
								c0.24-0.164,0.466-0.295,0.706-0.425c0.238-0.128,0.48-0.245,0.727-0.352c0.246-0.108,0.5-0.198,0.755-0.278
								c0.256-0.079,0.518-0.136,0.78-0.179c0.047-0.008,0.091,0.024,0.098,0.071c0.007,0.041-0.017,0.08-0.054,0.094l-0.003,0.001
								c-0.24,0.092-0.472,0.194-0.695,0.317c-0.222,0.123-0.439,0.254-0.646,0.401c-0.208,0.145-0.408,0.299-0.602,0.46
								c-0.19,0.16-0.385,0.335-0.545,0.502l-0.011,0.011c-0.13,0.135-0.344,0.14-0.48,0.012l0,0
								c-0.203-0.182-0.376-0.382-0.517-0.595c-0.138-0.214-0.252-0.435-0.344-0.661c-0.091-0.226-0.164-0.455-0.221-0.686
								c-0.056-0.232-0.1-0.461-0.124-0.7c-0.005-0.047,0.03-0.089,0.077-0.094c0.04-0.004,0.077,0.021,0.09,0.057L382.055,255.795z
								"/>
							<path style="fill:#4A827B;" d="M383.641,252.715c0.055,0.304,0.153,0.607,0.284,0.873c0.066,0.133,0.144,0.256,0.227,0.365
								c0.085,0.108,0.181,0.196,0.278,0.267l0,0l-0.485-0.081c0.199-0.073,0.375-0.122,0.563-0.169
								c0.186-0.046,0.373-0.083,0.56-0.113c0.375-0.058,0.758-0.079,1.13-0.042c0.047,0.005,0.082,0.047,0.077,0.094
								c-0.004,0.039-0.033,0.069-0.069,0.076l-0.002,0c-0.349,0.067-0.68,0.187-0.996,0.337c-0.158,0.075-0.311,0.157-0.461,0.245
								c-0.146,0.087-0.301,0.185-0.423,0.278c-0.143,0.109-0.346,0.085-0.46-0.051l-0.025-0.03l0,0
								c-0.233-0.337-0.336-0.698-0.383-1.042c-0.022-0.173-0.031-0.344-0.028-0.512c0.003-0.169,0.015-0.333,0.041-0.501
								c0.007-0.047,0.051-0.079,0.098-0.072c0.037,0.006,0.065,0.035,0.071,0.07L383.641,252.715z"/>
						</g>
					</g>
					<g>
						<path style="fill:#E28037;" d="M409.814,249.296c0.439-0.265,0.992,0.051,0.848,0.486c-0.325,0.978-0.843,1.55-0.726,2.786
							c0.206,2.164,2.135,7.692-3.355,8.638C401.327,262.111,400.468,254.934,409.814,249.296z"/>
						<g>
							<path style="fill:#FFB22E;" d="M406.11,260.084c-0.127-0.373-0.19-0.751-0.226-1.132c-0.018-0.19-0.023-0.38-0.029-0.571
								c0.002-0.19,0.006-0.38,0.017-0.57c0.016-0.189,0.033-0.379,0.057-0.567c0.027-0.188,0.061-0.375,0.094-0.563
								c0.032-0.187,0.077-0.373,0.119-0.558c0.04-0.186,0.088-0.37,0.142-0.553c0.097-0.368,0.228-0.727,0.356-1.085
								c0.07-0.177,0.148-0.352,0.222-0.526l0.115-0.261c0.043-0.085,0.086-0.17,0.131-0.254l0.269-0.502
								c0.098-0.163,0.204-0.321,0.306-0.481c0.052-0.079,0.101-0.16,0.156-0.237l0.175-0.224c0.116-0.15,0.235-0.296,0.357-0.44
								c0.031-0.036,0.085-0.041,0.121-0.01c0.029,0.025,0.038,0.065,0.024,0.099l-0.002,0.005
								c-0.289,0.688-0.593,1.347-0.811,2.042l-0.09,0.256l-0.077,0.261c-0.051,0.174-0.109,0.344-0.157,0.519
								c-0.09,0.35-0.19,0.696-0.263,1.05c-0.165,0.702-0.278,1.414-0.396,2.128c-0.123,0.714-0.249,1.429-0.438,2.165l-0.001,0.004
								c-0.012,0.047-0.06,0.076-0.108,0.064C406.142,260.134,406.12,260.111,406.11,260.084z"/>
							<path style="fill:#FFB22E;" d="M404.995,255.795c0.072,0.21,0.164,0.42,0.265,0.618c0.102,0.199,0.216,0.39,0.341,0.568
								c0.126,0.178,0.266,0.339,0.415,0.483c0.15,0.142,0.314,0.256,0.48,0.347l0,0l-0.491,0.023
								c0.24-0.164,0.466-0.295,0.706-0.425c0.238-0.128,0.48-0.245,0.727-0.352c0.246-0.108,0.5-0.198,0.755-0.278
								c0.256-0.079,0.518-0.136,0.78-0.179c0.047-0.008,0.091,0.024,0.098,0.071c0.007,0.041-0.017,0.08-0.054,0.094l-0.003,0.001
								c-0.24,0.092-0.472,0.194-0.695,0.317c-0.222,0.123-0.439,0.254-0.646,0.401c-0.207,0.145-0.408,0.299-0.602,0.46
								c-0.19,0.16-0.385,0.335-0.545,0.502l-0.011,0.011c-0.13,0.135-0.344,0.14-0.48,0.012l0,0
								c-0.203-0.182-0.376-0.382-0.517-0.595c-0.138-0.214-0.252-0.435-0.344-0.661c-0.091-0.226-0.164-0.455-0.221-0.686
								c-0.057-0.232-0.1-0.461-0.124-0.7c-0.005-0.047,0.029-0.089,0.077-0.094c0.04-0.004,0.077,0.021,0.09,0.057L404.995,255.795
								z"/>
							<path style="fill:#FFB22E;" d="M406.581,252.715c0.055,0.304,0.153,0.607,0.284,0.873c0.066,0.133,0.144,0.256,0.227,0.365
								c0.085,0.108,0.181,0.196,0.278,0.267l0,0l-0.485-0.081c0.199-0.073,0.375-0.122,0.563-0.169
								c0.186-0.046,0.373-0.083,0.56-0.113c0.375-0.058,0.758-0.079,1.13-0.042c0.047,0.005,0.082,0.047,0.077,0.094
								c-0.004,0.039-0.033,0.069-0.069,0.076l-0.002,0c-0.349,0.067-0.68,0.187-0.996,0.337c-0.158,0.075-0.312,0.157-0.461,0.245
								c-0.146,0.087-0.301,0.185-0.422,0.278c-0.143,0.109-0.346,0.085-0.46-0.051l-0.025-0.03l0,0
								c-0.233-0.337-0.337-0.698-0.383-1.042c-0.022-0.173-0.031-0.344-0.028-0.512c0.003-0.169,0.015-0.333,0.041-0.501
								c0.007-0.047,0.051-0.079,0.098-0.072c0.037,0.006,0.065,0.035,0.071,0.07L406.581,252.715z"/>
						</g>
					</g>
				</g>
			</g>
			<g>
				<g>
					<g>
						<path style="fill:#FFFFFF;" d="M237.889,393.906c-0.578,0-1.158-0.059-1.729-0.179l-36.63-7.663
							c-2.553-0.534-4.522-2.57-4.971-5.139c-0.449-2.569,0.713-5.152,2.933-6.521l71.019-43.767c0.9-0.554,1.924-0.877,2.98-0.936
							l36.956-2.106c3.826-0.215,7.234,2.068,8.485,5.69s-0.024,7.527-3.171,9.715l-71.027,49.392
							C241.305,393.385,239.605,393.906,237.889,393.906z M238.766,381.256l0.007,0.001
							C238.771,381.257,238.769,381.256,238.766,381.256z M217.782,376.866l19.191,4.014l57.097-39.705l-20.248,1.154
							L217.782,376.866z"/>
						<path style="fill:#FFFFFF;" d="M200.836,386.199c-1.846,0-3.664-0.801-4.914-2.312l-30.247-36.6l-0.001-0.001
							c-1.72-2.082-2.472-4.807-2.063-7.477c0.409-2.669,1.941-5.043,4.205-6.515l60.431-39.295
							c3.739-2.427,8.735-1.902,11.883,1.252l36.23,36.31c1.375,1.379,2.045,3.31,1.816,5.244c-0.227,1.934-1.327,3.657-2.984,4.679
							l-71.019,43.767C203.139,385.89,201.982,386.199,200.836,386.199z M177.823,341.986l24.388,29.51l59.445-36.634
							l-28.678-28.741L177.823,341.986z"/>
					</g>
					<g>
						<g>
							<path style="fill:#FFFFFF;" d="M256.896,452.786c-1.621-0.105-3.245-0.494-4.848-1.181c-1.963-0.842-3.93-1.669-5.886-2.492
								c-17.679-7.437-34.378-14.461-41.222-28.423c-3.454-7.044-14.592-12.643-18.222-14.049c-2.641-1.023-4.29-3.667-4.046-6.488
								c1.03-11.92,8.389-16.137,9.225-16.579c1.435-0.757,3.104-0.941,4.67-0.508c1.857,0.512,4.038,1.251,6.147,1.966
								c2.14,0.724,4.352,1.475,5.616,1.772c0.835,0.196,1.626,0.386,2.384,0.569c5.364,1.292,8.32,2.004,13.595,1.576
								c19.189-1.575,51.21,19.396,51.514,19.609c8.405,5.891,4.746,21.896-0.535,31.38
								C270.444,448.636,263.702,453.225,256.896,452.786z M196.38,397.062c6.018,3.067,15.626,9.099,20.001,18.021
								c4.743,9.676,19.305,15.801,34.721,22.286c1.983,0.834,3.977,1.672,5.967,2.525c0.423,0.182,1.553,0.669,3.92-1.753
								c5.469-5.594,7.788-16.514,6.967-19.534c-7.944-5.382-31.443-17.855-42.614-16.962c-7.308,0.592-11.854-0.501-17.61-1.887
								c-0.736-0.177-1.504-0.362-2.314-0.553c-1.859-0.436-4.254-1.248-6.79-2.107c-0.646-0.219-1.299-0.44-1.938-0.653
								C196.585,396.633,196.481,396.838,196.38,397.062z"/>
						</g>
						<path style="fill:#FFFFFF;" d="M191.535,409.97c-0.637-0.041-1.277-0.153-1.912-0.34l-4.559-1.34
							c-4.253-1.253-6.89-5.493-6.135-9.866c0.6-3.467,2.548-10.196,8.864-16.337c2.658-2.585,6.669-3.223,9.979-1.584l2.801,1.387
							c3.871,1.92,5.745,6.297,4.461,10.41c-0.814,2.606-2.564,7.739-5.136,12.865C198.297,408.356,194.971,410.192,191.535,409.97z
							 M193.224,397.41c0.001,0,0.002,0,0.003,0.001C193.227,397.41,193.226,397.41,193.224,397.41z"/>
					</g>
					<g>
						<path style="fill:#FFFFFF;" d="M290.004,424.547c-0.611,0-1.226-0.087-1.831-0.269c-12.354-3.708-22.322-14.138-22.739-14.58
							c-1.648-1.741-2.178-4.26-1.373-6.517l12.905-36.172c1.146-3.212,4.621-4.954,7.879-3.946
							c21.494,6.636,32.333,19.165,32.785,19.696c1.906,2.242,2.029,5.497,0.299,7.876l-22.772,31.292
							C293.934,423.601,292.005,424.547,290.004,424.547z M277.464,403.527c2.376,2.056,6.074,4.915,10.275,6.936l16.604-22.816
							c-3.415-2.865-9.262-7.034-17.514-10.37L277.464,403.527z"/>
						<path style="fill:#FFFFFF;" d="M314.804,395.061c-1.557,0-3.066-0.571-4.237-1.613l-2.028-1.806
							c-0.102-0.092-0.201-0.187-0.299-0.284c-0.101-0.102-11.215-11.147-27.07-16.098l-2.129-0.587
							c-3.186-0.881-5.17-4.053-4.566-7.303l0.822-4.429c0.561-3.022,3.198-5.208,6.262-5.208c0.035,0,0.071,0,0.107,0.001
							c0.821,0.014,20.363,0.59,41.079,22.871c2.221,2.39,2.278,6.073,0.131,8.53l-3.276,3.748c-1.119,1.28-2.702,2.06-4.399,2.166
							C315.069,395.057,314.936,395.061,314.804,395.061z"/>
						<path style="fill:#FFFFFF;" d="M315.577,388.725c-1.555,0-3.08-0.57-4.264-1.638c-0.104-0.093-11.452-10.137-29.046-16.661
							c-2.096-0.777-3.63-2.596-4.045-4.791c-0.414-2.197,0.352-4.449,2.02-5.936c0.972-0.868,3.802-3.469,5.196-5.065
							c1.396-1.597,3.496-2.388,5.596-2.129c0.679,0.086,16.805,2.283,31.521,18.013c1.547,1.655,2.1,4.007,1.451,6.178
							c-0.059,0.197-1.455,4.857-2.381,7.659c-0.675,2.043-2.336,3.607-4.416,4.158
							C316.669,388.655,316.122,388.725,315.577,388.725z"/>
						<path style="fill:#FFFFFF;" d="M296.169,417.747c-1.349,0-2.716-0.297-4.003-0.916c-3.483-1.671-11.114-5.687-23.062-13.806
							c-3.382-2.299-4.837-6.464-3.624-10.364c0.012-0.041,0.025-0.08,0.038-0.12l5.132-15.426c0.805-2.512,2.648-4.558,5.064-5.623
							c2.444-1.073,5.23-1.038,7.645,0.097l0,0c5.813,2.736,17.093,8.542,27.34,16.682c1.931,1.535,3.146,3.732,3.419,6.186
							c0.264,2.347-0.364,4.656-1.769,6.538l-8.695,12.872c-0.098,0.147-0.204,0.288-0.314,0.426
							C301.538,416.537,298.887,417.747,296.169,417.747z M278.47,393.972c7.574,5.05,13.019,8.172,16.494,10.002l5.213-7.717
							c-6.708-4.972-13.669-8.861-18.675-11.396L278.47,393.972z M302.773,398.248h0.011H302.773z M277.933,383.118
							c0.001,0,0.002,0,0.002,0.001C277.935,383.118,277.934,383.118,277.933,383.118L277.933,383.118z"/>
					</g>
					<g>
						<path style="fill:#FFFFFF;" d="M286.587,334.424c-2.52,0-4.984-1.225-6.49-3.477c-0.062-0.093-0.126-0.192-0.187-0.294v0.001
							c-1.086-1.787-1.409-3.889-0.912-5.92c0.497-2.028,1.753-3.742,3.539-4.824l24.799-15.03c1.786-1.089,3.986-1.413,6.031-0.882
							c1.995,0.518,3.722,1.824,4.755,3.592c2.171,3.675,0.979,8.442-2.678,10.662l-24.799,15.03
							C289.374,334.055,287.972,334.424,286.587,334.424z M284.045,322.385c-0.003,0.001-0.007,0.003-0.01,0.006L284.045,322.385z
							 M313.952,315.768l-0.019,0.011C313.94,315.775,313.947,315.772,313.952,315.768z"/>
						<path style="fill:#FFFFFF;" d="M279.308,336.173c-1.002,0-2.009-0.146-2.985-0.442c-2.794-0.847-5.103-2.85-6.34-5.495
							l-10.497-22.453c-2.176-4.654-0.649-10.096,3.632-12.94l31.01-20.579c4.453-2.956,10.346-2.049,13.705,2.112l16.59,20.547
							c1.866,2.312,2.643,5.316,2.132,8.242c-0.512,2.927-2.263,5.49-4.804,7.031l-37.103,22.486
							C283.025,335.668,281.173,336.173,279.308,336.173z M271.92,304.293l8.454,18.083l32.381-19.624l-13.435-16.641
							L271.92,304.293z M297.651,279.572h0.011H297.651z"/>
						<path style="fill:#FFFFFF;" d="M272.8,327.587c-0.699,0-1.399-0.114-2.072-0.346c-1.632-0.562-2.967-1.762-3.699-3.327
							l-4.247-9.084c-0.977-2.091-0.748-4.548,0.603-6.421c0.644-0.895,4.101-5.31,9.472-5.31c0.062,0,0.125,0,0.188,0.001
							c1.977,0.039,5.738,0.772,8.72,5.264c2.503,3.772,2.328,7.232,1.74,9.47c-1.468,5.584-6.766,8.527-7.814,9.06
							C274.786,327.354,273.794,327.587,272.8,327.587z"/>
					</g>
				</g>
				<g>
					<g>
						<path style="fill:#EF8E92;" d="M200.652,379.942l36.637,7.665c0.565,0.118,1.153-0.001,1.627-0.331l71.028-49.392
							c1.737-1.208,0.796-3.936-1.317-3.816l-36.957,2.106L200.652,379.942"/>
						<path style="fill:#BF5564;" d="M210.452,376.669l24.806,5.342c0.293,0.063,0.599,0.002,0.845-0.169l59.957-41.693
							c0.905-0.629,0.398-2.05-0.701-1.965l-25.43,1.97c-0.171,0.013-0.337,0.067-0.483,0.158L210.452,376.669"/>
						<polygon style="fill:#EF8E92;" points="220.862,369.114 251.33,373.649 254.819,371.381 224.03,366.846 						"/>
						<polygon style="fill:#EF8E92;" points="236.511,358.267 266.979,362.802 270.468,360.534 239.678,355.999 						"/>
						<polygon style="fill:#EF8E92;" points="254.692,347.419 285.16,351.955 288.649,349.687 257.86,345.151 						"/>
						<polygon style="fill:#EF8E92;" points="214.111,379.942 278.514,337.721 282.902,338.18 217.344,381.393 						"/>
						<polygon style="fill:#EF8E92;" points="224.44,381.983 290.42,337.262 294.807,337.721 227.673,383.434 						"/>
						<path style="fill:#BF5564;" d="M170.405,343.342l30.247,36.6l71.019-43.768l-36.23-36.309
							c-1.04-1.042-2.667-1.214-3.901-0.411l-60.432,39.295C169.549,339.763,169.221,341.909,170.405,343.342z"/>
						<path style="fill:#0B3038;" d="M177.298,343.332l23.159,28.651c0.712,0.881,1.968,1.096,2.932,0.501l58.221-35.881
							c1.234-0.761,1.438-2.473,0.417-3.502l-27.55-27.772c-0.752-0.758-1.931-0.884-2.826-0.302l-53.83,35.002
							C176.702,340.757,176.458,342.293,177.298,343.332z"/>
						<path style="fill:#FFB22E;" d="M209.706,326.712c0,0-11.193,7.592-1.458,15.228c9.734,7.636,16.216,3.513,16.216,3.513
							s5.67-5.552,0.642-13.544C220.078,323.915,216.035,322.645,209.706,326.712z"/>
						<path style="fill:#FFB22E;" d="M220.209,346.55l6.743-5.905c0,0,6.928,4.795,3.051,8.256
							C226.125,352.363,222.583,350.682,220.209,346.55z"/>
						<path style="fill:#0B3038;" d="M221.526,342.637l0.104-9.57c0.035-0.603-0.676-0.947-1.127-0.546l-2.608,2.321
							c-0.37,0.33-0.958,0.163-1.1-0.312l-1.467-4.909c-0.214-0.715-1.257-0.61-1.325,0.133l-0.484,11.209
							c-0.056,0.612,0.667,0.976,1.126,0.568l2.957-2.631c0.367-0.326,0.948-0.167,1.097,0.301l1.506,3.603
							C220.432,343.52,221.483,343.388,221.526,342.637z"/>
					</g>
					<g>
						<g>
							<path style="fill:#A3C98B;" d="M189.495,399.78c0,0,16.152,6.722,21.208,17.718c6.156,13.388,24.889,20.551,43.193,28.941
								c13.467,6.173,25.567-26.233,18.396-31.53c-4.959-3.663-31.916-20.487-46.868-19.645c-7.144,0.403-10.966-0.928-17.889-2.736
								c-2.898-0.757-8.308-3.006-11.902-4.095C195.632,388.435,190.473,390.999,189.495,399.78z"/>
						</g>
						<path style="fill:#4A827B;" d="M191.83,402.66l-4.529-1.455c-1.145-0.368-1.823-1.532-1.588-2.712
							c0.557-2.806,2.243-7.957,7.343-12.675c0.74-0.685,1.832-0.844,2.725-0.374l2.764,1.455c1.022,0.538,1.508,1.737,1.136,2.831
							c-0.855,2.516-2.58,7.167-5.042,11.784C194.1,402.523,192.919,403.01,191.83,402.66z"/>
						<path style="fill:#4A827B;" d="M217.216,426.245c0,0,9.338-11.899,14.037-30.571c0,0,9.791,0.687,29.603,12.1
							c0,0-3.02,18.297-17.386,33.949C243.471,441.723,223.73,434.991,217.216,426.245z"/>
						<path style="fill:#A3C98B;" d="M247.454,413.552c3.009,1.457,3.924,5.784,2.045,9.665s-5.842,5.846-8.851,4.389
							c-3.009-1.457-10.24-8.843-8.361-12.724C234.166,411.001,244.445,412.095,247.454,413.552z"/>
					</g>
					<g>
						<path style="fill:#FFB22E;" d="M283.614,369.277l-12.905,36.173c0,0,9.075,9.594,19.943,12.855l22.772-31.291
							C313.424,387.014,303.583,375.443,283.614,369.277z"/>
						<path style="fill:#E28037;" d="M283.614,369.277l-2.228-0.616l0.822-4.428c0,0,17.414,0.289,36.52,20.838l-3.276,3.748
							l-2.028-1.806C313.424,387.014,301.362,374.785,283.614,369.277z"/>
						<path style="fill:#E28037;" d="M285.129,364.582c0,0,3.785-3.373,5.754-5.627c0,0,14.354,1.813,27.667,16.044
							c0,0-1.417,4.737-2.325,7.484C316.225,382.483,304.209,371.658,285.129,364.582z"/>
						<path style="fill:#4A827B;" d="M281.295,377.483c5.173,2.435,16.206,8.054,26.089,15.906c1.234,0.98,1.427,2.784,0.441,4.012
							l-8.801,13.03c-0.829,1.033-2.257,1.36-3.452,0.787c-3.309-1.588-10.623-5.44-22.239-13.333
							c-1.037-0.704-1.493-2.007-1.121-3.204l5.146-15.467C277.872,377.56,279.728,376.745,281.295,377.483z"/>
						<path style="fill:#D3EFED;" d="M295.585,405.446c-0.177,0.025-0.362-0.009-0.528-0.106c-1.553-0.92-2.098-2.355-2.119-3.833
							c-0.255,0.178-0.525,0.323-0.811,0.427c-0.769,0.275-1.584,0.209-2.336-0.207c-0.912-0.505-1.508-1.244-1.723-2.14
							c-0.041-0.167-0.066-0.336-0.081-0.502c-0.217,0.101-0.451,0.182-0.701,0.242c-1.288,0.29-2.654-0.095-4.053-1.185
							c-1.102-0.858-1.64-2.29-1.569-4.108c-1.522,0.852-2.817,1.493-3.388,1.769c-0.405,0.196-0.892,0.026-1.088-0.378
							c-0.196-0.405-0.027-0.892,0.378-1.088c1.361-0.659,2.919-1.491,4.409-2.376c0.749-2.99,2.805-6.439,4.905-7.089
							c0.831-0.264,1.621-0.066,2.222,0.539c0.477,0.48,0.669,1.086,0.556,1.75c-0.315,1.843-3.346,4.092-6.242,5.852
							c-0.191,1.071-0.325,2.951,0.819,3.843c0.988,0.771,1.902,1.066,2.67,0.886c0.848-0.195,1.435-0.909,1.718-1.334
							c0.121-0.227,0.219-0.378,0.252-0.427c0.239-0.352,0.71-0.463,1.08-0.251c0.371,0.213,0.514,0.675,0.33,1.059
							c-0.012,0.024-0.092,0.191-0.247,0.431c-0.25,0.491-0.551,1.308-0.385,1.991c0.109,0.448,0.413,0.804,0.926,1.088
							c0.343,0.19,0.661,0.221,0.996,0.1c0.809-0.291,1.561-1.353,2.058-2.243c0.182-0.451,0.383-0.856,0.579-1.198
							c0.213-0.37,0.674-0.513,1.06-0.327c0.385,0.184,0.562,0.635,0.405,1.031c-0.047,0.121-0.226,0.562-0.525,1.122
							c-0.573,1.428-1.234,3.986,0.736,5.152c0.387,0.229,0.515,0.729,0.286,1.117C296.042,405.276,295.822,405.413,295.585,405.446
							z M287.506,386.395c-0.044,0.006-0.091,0.018-0.144,0.034c-0.977,0.302-2.357,2.035-3.238,4.186
							c2.127-1.417,3.771-2.816,3.927-3.729c0.024-0.141-0.002-0.222-0.106-0.328C287.826,386.438,287.705,386.367,287.506,386.395z
							"/>
					</g>
					<g>
						<path style="fill:#0B3038;" d="M285.205,327.512c-0.011-0.017-0.023-0.034-0.033-0.052c-0.415-0.684-0.196-1.575,0.488-1.99
							l24.797-15.029c0.683-0.416,1.6-0.201,1.99,0.488c0.415,0.684,0.196,1.575-0.488,1.99l-24.797,15.029
							C286.496,328.353,285.632,328.155,285.205,327.512z"/>
						<path style="fill:#4A827B;" d="M297.47,279.685l-31.008,20.578c-1.62,1.075-2.209,3.173-1.386,4.934l10.497,22.455
							c0.989,2.116,3.595,2.906,5.592,1.695l37.101-22.485c2.033-1.232,2.513-3.975,1.02-5.824l-16.591-20.548
							C301.423,278.913,299.159,278.564,297.47,279.685z"/>
						<path style="fill:#0B3038;" d="M295.323,285.617l-24.52,16.273c-1.375,0.913-1.93,2.613-1.304,3.997l7.977,17.656
							c0.752,1.663,2.884,2.213,4.576,1.18l29.625-17.994c1.723-1.052,2.207-3.264,1.03-4.699l-13.083-15.935
							C298.621,284.873,296.757,284.666,295.323,285.617z"/>
						<path style="fill:#4A827B;" d="M268.372,312.246c0,0,4.199-5.827,7.904-0.245c3.705,5.582-3.657,9.33-3.657,9.33
							L268.372,312.246z"/>
						<path style="fill:#0B3038;" d="M313.729,299.027c-0.601,0.399-1.374,0.292-1.727-0.239c-0.352-0.531-0.151-1.285,0.451-1.684
							c0.601-0.399,1.374-0.292,1.727,0.239C314.532,297.874,314.33,298.628,313.729,299.027z"/>
						<path style="fill:#0B3038;" d="M303.481,287.259c-0.203-0.305-0.145-0.722,0.146-0.96c0.309-0.254,0.765-0.209,1.019,0.102
							l6.721,8.208c0.259,0.29,0.208,0.766-0.102,1.019c-0.309,0.254-0.765,0.209-1.019-0.102l-6.721-8.208
							C303.51,287.299,303.494,287.279,303.481,287.259z"/>
						<path style="fill:#0B3038;" d="M271.1,315.423c-0.802-1.208-0.472-2.842,0.737-3.644c1.208-0.802,2.842-0.472,3.644,0.737
							c0.802,1.209,0.472,2.842-0.737,3.644S271.902,316.632,271.1,315.423z M274.878,312.916c-0.581-0.875-1.765-1.114-2.64-0.534
							c-0.875,0.581-1.114,1.765-0.534,2.64c0.581,0.875,1.765,1.114,2.64,0.534C275.219,314.976,275.458,313.791,274.878,312.916z"
							/>
						<path style="fill:#D3EFED;" d="M296.727,299.476l-9.563-0.376c-0.602-0.052-0.966,0.649-0.578,1.111l2.246,2.674
							c0.319,0.38,0.136,0.962-0.344,1.091l-4.949,1.327c-0.721,0.193-0.646,1.239,0.095,1.328l11.191,0.803
							c0.61,0.073,0.995-0.639,0.599-1.109l-2.546-3.03c-0.316-0.376-0.14-0.952,0.332-1.088l3.644-1.403
							C297.578,300.595,297.476,299.541,296.727,299.476z"/>
					</g>
				</g>
			</g>
			<g>
				<g>
					<g>
						<path style="fill:#FFFFFF;" d="M169.336,200.897l-4.331-20.046l4.379-1.122c0.081-0.443,0.123-1.26-0.082-2.516
							c-0.886-5.441-2.4-7.233-2.931-7.709l-3.896,0.109l-3.881-16.161l6.613-0.719c5.47-0.597,16.562,1.584,19.381,14.086
							c1.841,8.165,5.672,25.154-8.731,31.296L169.336,200.897z"/>
						<g>
							<path style="fill:#FFFFFF;" d="M105.825,269.168c-1.622,0-2.616-0.031-2.865-0.041l-3.847-0.136l-1.399-3.586
								c-16.3-41.783-30.097-101.493-30.234-102.091l-1.159-5.044l4.863-1.769c44.417-16.158,87.423-20.998,89.232-21.196
								l4.759-0.521l1.456,4.561c16.751,52.477,20.995,103.001,21.168,105.125l0.299,3.679l-3.191,1.855
								C154.271,267.825,116.496,269.168,105.825,269.168z M80.096,165.764c3.541,14.662,14.458,58.151,27.1,91.669
								c10.801-0.162,42.456-1.886,68.573-15.744c-1.266-12.21-6.144-52.567-18.839-94.129
								C145.127,149.204,113.092,154.368,80.096,165.764z"/>
							<path style="fill:#FFFFFF;" d="M70.334,177.285c-1.014,0-2.031-0.169-3.021-0.509c-2.42-0.831-4.446-2.66-5.557-5.018
								l-3.233-6.857c-2.259-4.792-0.327-10.563,4.307-12.863c52.393-26.016,94.615-23.506,106.31-22.117
								c5.036,0.598,8.723,5.13,8.392,10.316l-0.53,8.324c-0.173,2.727-1.471,5.255-3.562,6.936c-2.02,1.624-4.64,2.328-7.191,1.935
								c-6.028-0.929-22.359-2.609-43.774,1.896c-22.368,4.704-41.002,13.423-47.975,16.954
								C73.184,176.949,71.764,177.285,70.334,177.285z M69.913,161.604l1.484,3.146c8.642-4.218,26.991-12.321,48.668-16.879
								c20.346-4.279,36.406-3.503,45.4-2.369l0.265-4.17C152.74,140.101,115.842,139.311,69.913,161.604z"/>
							<path style="fill:#FFFFFF;" d="M60.888,162.269l9.179-22.848l2.2-0.958c1.728-0.753,42.76-18.402,82.633-15.907l1.378,0.086
								l1.194,0.693c0.775,0.45,2.833,1.644,8.131,10.209l4.225,6.831l-7.797,1.931c-0.521,0.129-52.57,12.973-91.09,18.517
								L60.888,162.269z M146.246,134.029c-26.895,0.187-53.692,9.179-64.421,13.229
								C105.357,143.278,131.172,137.533,146.246,134.029z"/>
						</g>
						<path style="fill:#FFFFFF;" d="M85.165,218.247c-14.255,0.002-18.554-15.88-20.661-23.661
							c-3.349-12.371,5.439-19.479,10.554-21.51l6.183-2.455l4.119,16.102l-3.495,1.724c-0.247,0.669-0.749,2.96,1.01,8.184
							c-0.084-0.253,0.27,0.682,0.335,0.874c0.063,0.124,0.265,0.552,0.311,0.658c0.056,0.09,0.234,0.393,0.272,0.465
							c0.039,0.05,0.143,0.194,0.193,0.266l4.389-1.053l5.537,19.748l-7.065,0.588C86.272,218.223,85.711,218.247,85.165,218.247z
							 M82.9,199.153c-0.002,0.001-0.004,0.001-0.006,0.002L82.9,199.153z"/>
					</g>
					<g>
						<g>
							<g>
								<path style="fill:#FFFFFF;" d="M201.326,286.011l-3.682-0.241c-31.23-2.044-59.087-22.017-60.258-22.866l-3.116-2.261
									l0.841-3.757c7.434-33.213,23.51-75.275,24.19-77.05l1.854-4.831l5.022,1.247c34.869,8.654,64.056,23.852,65.281,24.495
									l4.24,2.223l-1.338,4.596c-11.689,40.168-30.435,73.812-31.228,75.225L201.326,286.011z M147.44,255.546
									c7.361,4.698,26.532,15.758,47.266,18.2c4.72-8.954,17.786-34.937,27.006-64.767c-8.682-4.181-29.493-13.595-53.309-20.053
									C164.14,200.484,153.464,230.378,147.44,255.546z"/>
								<path style="fill:#FFFFFF;" d="M227.538,222.09c-1.338,0-2.679-0.251-3.967-0.753l-65.815-25.679
									c-5.593-2.182-8.379-8.499-6.21-14.081c1.419-3.652,2.88-6.093,4.6-7.681l0.142-0.127
									c1.451-1.255,14.391-12.349,21.988-15.447l1.906-0.777l1.973,0.587c1.41,0.419,34.721,10.376,51.933,19.924l2.332,1.294
									l0.555,2.609c0.156,0.737,3.81,18.206,1.396,31.076l-0.086,0.46l-0.493,1.372c-1.004,2.792-3.044,5.007-5.745,6.235
									C230.605,221.761,229.073,222.09,227.538,222.09z M162.771,185.047l64.227,25.059c1.263-7.884-0.174-18.288-0.99-23.086
									c-14.158-7.237-37.832-14.781-45.044-17.009c-4.752,2.609-12.508,8.728-16.879,12.496
									C164.021,182.595,163.523,183.255,162.771,185.047z"/>
							</g>
						</g>
					</g>
				</g>
				<g>
					<g>
						<path style="fill:#0B3038;" d="M165.84,158.554c0,0,10.623-1.155,13.038,9.554c2.415,10.709,3.556,20.84-5.317,24.623
							l-1.644-7.608c0,0,4.42-1.133,3.164-8.851c-2.085-12.81-8.022-12.644-8.022-12.644L165.84,158.554z"/>
						<g>
							<path style="fill:#9DCEC9;" d="M73.186,162.003c0,0,13.649,59.407,29.983,101.274c0,0,44.558,1.582,78.796-18.334
								c0,0-4.17-51.376-20.91-103.819C161.054,141.125,117.451,145.9,73.186,162.003z"/>
							<path style="fill:#4A827B;" d="M63.819,162.405l3.233,6.857c0.892,1.893,3.033,2.694,4.803,1.798
								c7.292-3.692,26.407-12.622,49.414-17.46c21.966-4.619,38.742-3.053,45.873-1.952c2.047,0.316,3.879-1.272,4.018-3.458
								l0.53-8.325c0.131-2.063-1.302-3.9-3.24-4.13c-11.762-1.397-52.222-3.674-103.016,21.547
								C63.635,158.175,62.916,160.49,63.819,162.405z"/>
							<path style="fill:#4A827B;" d="M70.106,155.028l4.498-11.198c0,0,41.01-17.867,79.928-15.431c0,0,1.564,0.907,6.09,8.224
								C160.622,136.623,108.782,149.461,70.106,155.028z"/>
						</g>
						<g>
							<g>
								<path style="fill:#4A827B;" d="M113.476,191.413c0,0,2.608-6.439,4.413-10.299c1.805-3.86,12.899-5.056,13.742-4.777
									c0.843,0.28-4.345,2.428-5.114,6.784c-0.769,4.356-0.076,15.608-7.477,13.78
									C111.639,195.073,112.037,194.898,113.476,191.413z"/>
								<path style="fill:#4A827B;" d="M134.088,177.333c0,0-5.768,3.363-5.397,6.399c0.371,3.036,5.336,3.88,7.351,6.292
									l-1.54,1.244c-0.488,0.394-0.281,1.279,0.325,1.387c2.232,0.397,5.908,0.666,9.893-0.021c0,0,1.201-4.768,1.442-8.114
									c0.044-0.607-0.534-1.048-1.007-0.773l-2.418,1.407C142.738,185.154,139.332,179.99,134.088,177.333z"/>
							</g>
							<g>
								<path style="fill:#4A827B;" d="M152.691,195.058c0,0,3.908,5.744,6.116,9.389c2.208,3.644-2.956,13.535-3.657,14.081
									c-0.701,0.546,0.393-4.962-2.803-8.02s-12.94-8.729-7.31-13.869C150.667,191.499,150.592,191.926,152.691,195.058z"/>
								<path style="fill:#4A827B;" d="M152.958,220.018c0,0,0.406-6.664-2.326-8.042c-2.731-1.377-6.19,2.284-9.314,2.621
									l-0.18-1.971c-0.057-0.624-0.908-0.944-1.334-0.499c-1.57,1.636-3.834,4.544-5.475,8.24c0,0,3.299,3.646,5.948,5.704
									c0.48,0.373,1.168,0.138,1.202-0.409l0.172-2.792C141.65,222.871,147.837,222.905,152.958,220.018z"/>
							</g>
							<g>
								<path style="fill:#4A827B;" d="M129.444,227.083c0,0-6.93,0.498-11.19,0.579c-4.26,0.081-10.225-9.349-10.345-10.229
									c-0.121-0.88,4.095,2.83,8.343,1.6c4.249-1.23,14.044-6.813,15.665,0.636C133.539,227.117,133.207,226.838,129.444,227.083z
									"/>
								<path style="fill:#4A827B;" d="M107.72,214.789c0,0,5.561,3.695,8.123,2.024c2.562-1.671,1.13-6.5,2.407-9.372l1.795,0.834
									c0.568,0.264,1.272-0.312,1.102-0.904c-0.628-2.179-2.007-5.597-4.38-8.87c0,0-4.809,1.024-7.919,2.282
									c-0.564,0.228-0.705,0.941-0.25,1.244l2.329,1.549C110.926,203.576,107.793,208.91,107.72,214.789z"/>
							</g>
						</g>
						<path style="fill:#4A827B;" d="M77.218,178.517c0,0-9.931,3.943-7.063,14.539c2.869,10.596,6.593,20.087,16.206,19.286
							l-2.101-7.494c0,0-4.437,1.064-6.933-6.347c-4.142-12.3,1.184-14.927,1.184-14.927L77.218,178.517z"/>
					</g>
					<g>
						<g>
							<g>
								<path style="fill:#FFB22E;" d="M164.767,181.934c0,0-16.517,43.054-23.943,76.231c0,0,27.301,19.807,57.202,21.764
									c0,0,19.076-34.01,30.713-73.997C228.738,205.931,199.352,190.517,164.767,181.934z"/>
								<path style="fill:#4A827B;" d="M159.884,190.204c-2.585-1.009-3.886-3.919-2.881-6.506c0.825-2.123,1.914-4.391,3.115-5.5
									c0,0,13.443-11.63,20.369-14.454c0,0,33.911,10.085,50.762,19.433c0,0,3.594,16.912,1.369,28.78l-0.334,0.931
									c-0.961,2.673-3.938,4.028-6.585,2.995L159.884,190.204z"/>
							</g>
							<path style="fill:#0B3038;" d="M181.24,167.482l-9.214,18.033l-0.542-2.011l0.001,0c4.069,2.245,8.305,4.343,12.557,6.315
								c4.264,1.97,8.59,3.803,12.965,5.501c4.373,1.708,8.824,3.193,13.31,4.542c4.494,1.325,9.054,2.376,13.646,3.201l0.001,0
								l-1.427,1.04l3.664-18.723c0.042-0.217,0.252-0.359,0.469-0.317c0.205,0.039,0.343,0.231,0.322,0.435l-2,18.977
								c-0.069,0.652-0.653,1.126-1.306,1.057l-0.039-0.005l-0.083-0.012l-0.001,0c-4.717-0.809-9.384-1.849-13.967-3.163
								c-4.574-1.337-9.107-2.812-13.551-4.509c-4.448-1.687-8.842-3.51-13.173-5.471c-4.335-1.972-8.591-4.037-12.815-6.326
								l-0.001-0.001l-0.137-0.087c-0.64-0.404-0.831-1.251-0.427-1.891c0.006-0.009,0.016-0.024,0.022-0.033l11.304-16.802
								c0.076-0.112,0.228-0.142,0.34-0.067C181.263,167.237,181.296,167.373,181.24,167.482z"/>
						</g>
						<g>
							<path style="fill:#4A827B;" d="M197.032,244.014c-2.331,8.515-11.244,13.463-19.747,10.857
								c-6.134-1.88-10.223-7.568-10.845-13.953c-1.201-12.317,9.236-11.294,19.509-24.684c1.346-1.754,4.148-0.878,4.322,1.326
								C191.61,234.46,199.049,236.645,197.032,244.014z"/>
							<path style="fill:#FFB22E;" d="M177.063,249.996c0.273-0.363,0.641-0.931,0.914-1.453c0.277-0.546,0.554-1.093,0.786-1.674
								c0.499-1.133,0.91-2.33,1.333-3.516c0.822-2.395,1.532-4.868,2.152-7.372c0.603-2.514,1.15-5.055,1.651-7.617
								c0.526-2.559,0.965-5.141,1.529-7.722l0.003-0.014c0.066-0.303,0.366-0.496,0.67-0.429c0.262,0.057,0.44,0.288,0.442,0.545
								c0.021,2.654-0.073,5.309-0.323,7.957c-0.237,2.649-0.637,5.288-1.154,7.917c-0.595,2.613-1.223,5.242-2.284,7.768
								c-0.299,0.622-0.574,1.248-0.893,1.859c-0.366,0.596-0.669,1.21-1.1,1.776c-0.399,0.573-0.846,1.129-1.355,1.637
								c-0.256,0.255-0.517,0.501-0.822,0.721c-0.296,0.237-0.589,0.409-1.034,0.609c-0.271,0.122-0.59,0.002-0.712-0.269
								c-0.084-0.185-0.054-0.393,0.06-0.544L177.063,249.996z"/>
							<path style="fill:#FFB22E;" d="M173.224,237.606c2.429,2.374,5.049,4.51,7.953,5.714c1.441,0.641,2.971,0.939,4.535,1.041
								c1.583,0.157,3.173-0.169,4.893-0.41l0.068-0.01c0.308-0.043,0.594,0.172,0.637,0.48c0.032,0.227-0.076,0.441-0.258,0.556
								c-1.543,0.972-3.339,1.777-5.284,1.874c-1.919,0.171-3.927-0.131-5.685-0.925c-1.767-0.77-3.349-1.87-4.658-3.193
								c-1.311-1.33-2.408-2.804-3.149-4.533c-0.123-0.287,0.01-0.619,0.297-0.742c0.217-0.093,0.459-0.04,0.618,0.115
								L173.224,237.606z"/>
							<path style="fill:#FFB22E;" d="M178.625,231.037c0.913,0.494,1.823,0.999,2.701,1.414c0.891,0.406,1.762,0.743,2.635,0.961
								c0.874,0.239,1.738,0.292,2.642,0.282c0.917,0.011,1.831-0.234,2.911-0.403l0.079-0.012c0.315-0.049,0.61,0.166,0.66,0.481
								c0.028,0.18-0.032,0.356-0.146,0.481c-0.798,0.865-1.846,1.615-3.084,1.908c-1.212,0.346-2.558,0.354-3.764,0.007
								c-1.213-0.327-2.321-0.905-3.244-1.661c-0.928-0.758-1.705-1.627-2.24-2.731c-0.139-0.286-0.019-0.631,0.267-0.77
								c0.172-0.083,0.366-0.074,0.523,0.01L178.625,231.037z"/>
						</g>
					</g>
				</g>
			</g>
		</g>
	</g>
</g>
</svg>
